<svg width="16" height="16" viewBox="0 0 16 16" fill="none" xmlns="http://www.w3.org/2000/svg">
<path d="M6.41283 14.4841C6.71657 14.8083 7.20903 14.8083 7.51278 14.4842C7.81652 14.16 7.81653 13.6345 7.5128 13.3103L3.65551 9.19367H14.2222C14.6518 9.19367 15 8.82205 15 8.36363C15 7.90521 14.6518 7.53359 14.2222 7.53359H3.65554L7.5129 3.41696C7.81664 3.09281 7.81663 2.56725 7.51289 2.24311C7.20914 1.91896 6.71668 1.91896 6.41294 2.24312L1.23392 7.77026C1.20822 7.79708 1.18427 7.8258 1.16224 7.85618C1.15303 7.86887 1.14422 7.88177 1.1358 7.89488C1.1259 7.91027 1.11655 7.92595 1.10774 7.94187C1.10121 7.95366 1.09498 7.96558 1.08905 7.97763C1.03219 8.09294 1 8.22428 1 8.36363C1 8.50767 1.03438 8.64314 1.09486 8.76121C1.11356 8.79776 1.13503 8.83314 1.15928 8.86698C1.18205 8.8988 1.20693 8.92881 1.23369 8.95678L6.41283 14.4841Z" fill="white"/>
</svg>
