<svg width="18" height="19" viewBox="0 0 18 19" fill="none" xmlns="http://www.w3.org/2000/svg">
<path fill-rule="evenodd" clip-rule="evenodd" d="M9.51173 6.80874L15.75 5L14.1973 11.3069L12.2603 9.44735L9.13578 12.702C9.02971 12.8125 8.88317 12.875 8.73 12.875C8.57683 12.875 8.43029 12.8125 8.32422 12.702L6.03 10.3122L2.65578 13.827C2.44064 14.0512 2.08456 14.0584 1.86045 13.8433C1.63635 13.6281 1.62908 13.2721 1.84422 13.048L5.62422 9.11045C5.73029 8.99996 5.87683 8.9375 6.03 8.9375C6.18317 8.9375 6.32971 8.99996 6.43578 9.11045L8.73 11.5003L11.4487 8.66825L9.51173 6.80874Z" fill="#EC5252"/>
</svg>
