<svg width="18" height="19" viewBox="0 0 18 19" fill="none" xmlns="http://www.w3.org/2000/svg">
<path d="M7.41283 16.029C7.71657 16.3601 8.20903 16.3601 8.51278 16.029C8.81652 15.6979 8.81653 15.1611 8.5128 14.83L4.65551 10.6252H15.2222C15.6518 10.6252 16 10.2456 16 9.77734C16 9.3091 15.6518 8.92951 15.2222 8.92951H4.65554L8.5129 4.72467C8.81664 4.39357 8.81663 3.85675 8.51289 3.52566C8.20914 3.19457 7.71668 3.19457 7.41294 3.52567L2.23392 9.17125C2.20822 9.19865 2.18427 9.22798 2.16224 9.25901C2.15303 9.27197 2.14422 9.28515 2.1358 9.29854C2.1259 9.31427 2.11655 9.33028 2.10774 9.34654C2.10121 9.35858 2.09498 9.37076 2.08905 9.38307C2.03219 9.50085 2 9.635 2 9.77734C2 9.92446 2.03438 10.0628 2.09486 10.1834C2.11356 10.2208 2.13503 10.2569 2.15928 10.2915C2.18205 10.324 2.20693 10.3546 2.23369 10.3832L7.41283 16.029Z" fill="#9FAAAC"/>
</svg>
