<svg width="18" height="19" viewBox="0 0 18 19" fill="none" xmlns="http://www.w3.org/2000/svg">
<path d="M16 9.27734V14.7218C16 15.1343 15.8361 15.53 15.5444 15.8217C15.2527 16.1135 14.857 16.2773 14.4444 16.2773H3.55556C3.143 16.2773 2.74733 16.1135 2.45561 15.8217C2.16389 15.53 2 15.1343 2 14.7218V9.27734H16ZM12.1111 2.27734C12.3174 2.27734 12.5152 2.35929 12.6611 2.50515C12.8069 2.65101 12.8889 2.84884 12.8889 3.05512V3.8329H14.4444C14.857 3.8329 15.2527 3.99679 15.5444 4.28851C15.8361 4.58023 16 4.9759 16 5.38845V7.72179H2V5.38845C2 4.9759 2.16389 4.58023 2.45561 4.28851C2.74733 3.99679 3.143 3.8329 3.55556 3.8329H5.11111V3.05512C5.11111 2.84884 5.19306 2.65101 5.33892 2.50515C5.48478 2.35929 5.68261 2.27734 5.88889 2.27734C6.09517 2.27734 6.293 2.35929 6.43886 2.50515C6.58472 2.65101 6.66667 2.84884 6.66667 3.05512V3.8329H11.3333V3.05512C11.3333 2.84884 11.4153 2.65101 11.5611 2.50515C11.707 2.35929 11.9048 2.27734 12.1111 2.27734Z" fill="#9FAAAC"/>
</svg>
