<svg width="18" height="19" viewBox="0 0 18 19" fill="none" xmlns="http://www.w3.org/2000/svg">
<path fill-rule="evenodd" clip-rule="evenodd" d="M1.5 12.6425L1.5 6.35675C1.5 4.04 2.835 2.75 5.1225 2.75L12.87 2.75C15.195 2.75 16.5 4.04 16.5 6.35675L16.5 12.6425C16.5 14.9225 15.195 16.25 12.87 16.25L5.1225 16.25C2.835 16.25 1.5 14.9225 1.5 12.6425ZM4.99578 12.4384L4.98828 12.4384L4.98828 10.1967C4.98828 9.87344 5.25078 9.61094 5.57253 9.61094C5.90328 9.61094 6.16578 9.87344 6.16578 10.1967L6.16578 12.4384C6.16578 12.7617 5.90328 13.0234 5.58078 13.0234C5.25828 13.0234 4.99578 12.7617 4.99578 12.4384ZM9.55747 12.4384L9.55747 6.55844C9.55747 6.23594 9.29497 5.97344 8.97247 5.97344C8.64997 5.97344 8.38672 6.23594 8.38672 6.55844L8.38672 12.4384C8.38672 12.7617 8.64997 13.0234 8.97247 13.0234C9.29497 13.0234 9.55747 12.7617 9.55747 12.4384ZM12.9852 12.4393L12.9852 6.5593C12.9552 6.26004 12.6994 6.03429 12.4002 6.03429C12.0927 6.03429 11.8377 6.26004 11.8077 6.5593L11.8077 12.4393C11.7852 12.6643 11.8902 12.8818 12.0852 13.0018C12.2727 13.1218 12.5202 13.1218 12.7152 13.0018C12.9027 12.8818 13.0152 12.6643 12.9852 12.4393Z" fill="#9FAAAC"/>
</svg>
