<svg width="18" height="19" viewBox="0 0 18 19" fill="none" xmlns="http://www.w3.org/2000/svg">
<path fill-rule="evenodd" clip-rule="evenodd" d="M7.99297 2.74057C8.62348 3.06741 9.37644 3.0675 10.007 2.74057C12.7326 1.32756 15.9999 3.31907 16 6.38811C16 8.38165 14.3737 16.3068 11.8939 16.3068C11.0154 16.3068 10.216 15.4107 9.44977 13.5672C9.28413 13.1685 8.71587 13.1686 8.55023 13.5672C7.78401 15.4107 6.98454 16.3068 6.10608 16.3068C3.60175 16.3068 2 8.32019 2 6.38811C2 3.31806 5.26853 1.32816 7.99297 2.74057ZM6.10623 3.98901C4.78288 3.98901 3.70619 5.06564 3.70619 6.389C3.70619 6.59095 3.86989 6.75459 4.07178 6.75459C4.27367 6.75459 4.43737 6.59095 4.43737 6.389C4.43737 5.4688 5.18598 4.72019 6.10623 4.72019C6.30812 4.72019 6.47182 4.55655 6.47182 4.3546C6.47182 4.15266 6.30812 3.98901 6.10623 3.98901ZM13.9297 6.02356C13.7279 6.02356 13.5642 6.18721 13.5642 6.38915C13.5642 6.99952 13.3132 8.73581 12.7554 10.6847C12.6998 10.8788 12.8121 11.0812 13.0062 11.1367C13.1995 11.1923 13.4025 11.0806 13.4582 10.8859C14.0356 8.86899 14.2953 7.04221 14.2953 6.38918C14.2953 6.18723 14.1316 6.02356 13.9297 6.02356Z" fill="#9FAAAC"/>
</svg>
