<svg width="13" height="15" viewBox="0 0 13 15" fill="none" xmlns="http://www.w3.org/2000/svg">
<path d="M12.4841 5.91283C12.8083 6.21657 12.8083 6.70903 12.4842 7.01278C12.16 7.31652 11.6345 7.31653 11.3103 7.0128L7.19367 3.15551L7.19367 13.7222C7.19367 14.1518 6.82205 14.5 6.36363 14.5C5.90521 14.5 5.53359 14.1518 5.53359 13.7222L5.53359 3.15554L1.41696 7.0129C1.09281 7.31664 0.567254 7.31663 0.243107 7.01289C-0.0810401 6.70914 -0.0810353 6.21668 0.243119 5.91294L5.77026 0.733916C5.79708 0.708222 5.8258 0.684266 5.85618 0.662239C5.86887 0.653034 5.88177 0.644221 5.89488 0.635799C5.91027 0.625904 5.92595 0.616549 5.94187 0.607736C5.95366 0.60121 5.96558 0.594982 5.97763 0.58905C6.09294 0.532187 6.22428 0.5 6.36363 0.5C6.50767 0.5 6.64314 0.534377 6.76121 0.594856C6.79776 0.61356 6.83314 0.635035 6.86698 0.659275C6.8988 0.682048 6.92881 0.70693 6.95678 0.733695L12.4841 5.91283Z" fill="#22BFF6"/>
</svg>
