<svg width="24" height="24" viewBox="0 0 24 24" fill="none" xmlns="http://www.w3.org/2000/svg">
<rect width="24" height="24" fill="white"/>
<path fill-rule="evenodd" clip-rule="evenodd" d="M23.04 12.2605C23.04 11.445 22.9668 10.6609 22.8309 9.9082H12V14.3566H18.1891C17.9225 15.7941 17.1123 17.0121 15.8943 17.8275V20.713H19.6109C21.7855 18.7109 23.04 15.7627 23.04 12.2605Z" fill="#4285F4"/>
<path fill-rule="evenodd" clip-rule="evenodd" d="M12.0034 23.4986C15.1084 23.4986 17.7116 22.4688 19.6143 20.7125L15.8977 17.827C14.8679 18.517 13.5507 18.9247 12.0034 18.9247C9.00815 18.9247 6.47293 16.9018 5.56861 14.1836H1.72656V17.1631C3.61884 20.9215 7.50793 23.4986 12.0034 23.4986Z" fill="#34A853"/>
<path fill-rule="evenodd" clip-rule="evenodd" d="M5.56523 14.1855C5.33523 13.4955 5.20455 12.7584 5.20455 12.0005C5.20455 11.2425 5.33523 10.5055 5.56523 9.81548V6.83594H1.72318C0.944318 8.38844 0.5 10.1448 0.5 12.0005C0.5 13.8562 0.944318 15.6125 1.72318 17.165L5.56523 14.1855Z" fill="#FBBC05"/>
<path fill-rule="evenodd" clip-rule="evenodd" d="M12.0034 5.07386C13.6918 5.07386 15.2077 5.65409 16.3995 6.79364L19.6979 3.49523C17.7063 1.63955 15.1032 0.5 12.0034 0.5C7.50793 0.5 3.61884 3.07705 1.72656 6.83545L5.56861 9.815C6.47293 7.09682 9.00815 5.07386 12.0034 5.07386Z" fill="#EA4335"/>
</svg>
