<svg width="18" height="19" viewBox="0 0 18 19" fill="none" xmlns="http://www.w3.org/2000/svg">
<path fill-rule="evenodd" clip-rule="evenodd" d="M5.8575 17L12.1432 17C14.46 17 15.75 15.665 15.75 13.3775L15.75 5.63C15.75 3.305 14.46 2 12.1432 2L5.8575 2C3.5775 2 2.25 3.305 2.25 5.63L2.25 13.3775C2.25 15.665 3.5775 17 5.8575 17ZM6.05766 13.5042L6.05766 13.5117L8.29941 13.5117C8.62266 13.5117 8.88516 13.2492 8.88516 12.9275C8.88516 12.5967 8.62266 12.3342 8.29941 12.3342L6.05766 12.3342C5.73441 12.3342 5.47266 12.5967 5.47266 12.9192C5.47266 13.2417 5.73441 13.5042 6.05766 13.5042ZM6.05766 8.94448L11.9377 8.94448C12.2602 8.94448 12.5227 9.20698 12.5227 9.52948C12.5227 9.85198 12.2602 10.1152 11.9377 10.1152L6.05766 10.1152C5.73441 10.1152 5.47266 9.85198 5.47266 9.52948C5.47266 9.20698 5.73441 8.94448 6.05766 8.94448ZM6.05875 5.51672L11.9388 5.51672C12.238 5.54672 12.4638 5.80247 12.4638 6.10172C12.4638 6.40922 12.238 6.66422 11.9388 6.69422L6.05875 6.69422C5.83375 6.71672 5.61625 6.61172 5.49625 6.41672C5.37625 6.22922 5.37625 5.98172 5.49625 5.78672C5.61625 5.59922 5.83375 5.48672 6.05875 5.51672Z" fill="#9FAAAC"/>
</svg>
