<svg width="20" height="20" viewBox="0 0 20 20" fill="none" xmlns="http://www.w3.org/2000/svg">
<mask id="mask0_438_8669" style="mask-type:alpha" maskUnits="userSpaceOnUse" x="4" y="4" width="12" height="12">
<path d="M14.9974 10.8327H10.8307V14.9993C10.8307 15.4577 10.4557 15.8327 9.9974 15.8327C9.53906 15.8327 9.16406 15.4577 9.16406 14.9993V10.8327H4.9974C4.53906 10.8327 4.16406 10.4577 4.16406 9.99935C4.16406 9.54102 4.53906 9.16602 4.9974 9.16602H9.16406V4.99935C9.16406 4.54102 9.53906 4.16602 9.9974 4.16602C10.4557 4.16602 10.8307 4.54102 10.8307 4.99935V9.16602H14.9974C15.4557 9.16602 15.8307 9.54102 15.8307 9.99935C15.8307 10.4577 15.4557 10.8327 14.9974 10.8327Z" fill="black"/>
</mask>
<g mask="url(#mask0_438_8669)">
<rect width="20" height="20" fill="#22BFF6"/>
</g>
</svg>
