<svg width="18" height="19" viewBox="0 0 18 19" fill="none" xmlns="http://www.w3.org/2000/svg">
<path fill-rule="evenodd" clip-rule="evenodd" d="M13.3267 6.78635H16.5C16.5 4.23844 14.9733 2.75 12.3867 2.75H5.61333C3.02667 2.75 1.5 4.23844 1.5 6.75385V12.2461C1.5 14.7616 3.02667 16.25 5.61333 16.25H12.3867C14.9733 16.25 16.5 14.7616 16.5 12.2461V12.0122H13.3267C11.8539 12.0122 10.66 10.8481 10.66 9.41225C10.66 7.97637 11.8539 6.81235 13.3267 6.81235V6.78635ZM13.3265 7.90431H15.9399C16.2492 7.90431 16.4999 8.14876 16.4999 8.45029V10.3482C16.4963 10.6483 16.2477 10.8907 15.9399 10.8942H13.3865C12.641 10.904 11.989 10.4063 11.8199 9.69825C11.7352 9.25872 11.8541 8.80518 12.1447 8.45917C12.4353 8.11315 12.8679 7.91006 13.3265 7.90431ZM13.4407 9.89926H13.6874C14.004 9.89926 14.2607 9.649 14.2607 9.34028C14.2607 9.03157 14.004 8.7813 13.6874 8.7813H13.4407C13.2893 8.77957 13.1434 8.83701 13.0357 8.94081C12.928 9.0446 12.8674 9.18612 12.8674 9.33378C12.8674 9.64357 13.123 9.8957 13.4407 9.89926ZM5.0538 6.78593H9.28713C9.60378 6.78593 9.86047 6.53566 9.86047 6.22695C9.86047 5.91823 9.60378 5.66797 9.28713 5.66797H5.0538C4.73974 5.66795 4.48412 5.91427 4.48047 6.22045C4.48045 6.53023 4.73608 6.78237 5.0538 6.78593Z" fill="#9FAAAC"/>
</svg>
