<svg width="258" height="155" viewBox="0 0 258 155" fill="none" xmlns="http://www.w3.org/2000/svg">
<path fill-rule="evenodd" clip-rule="evenodd" d="M65.0159 113.433H158.928C159.459 113.433 159.977 113.376 160.476 113.268C160.975 113.376 161.493 113.433 162.024 113.433H215.688C219.678 113.433 222.912 110.216 222.912 106.247C222.912 102.278 219.678 99.06 215.688 99.06H209.496C205.506 99.06 202.272 95.8424 202.272 91.8733C202.272 87.9042 205.506 84.6866 209.496 84.6866H229.104C233.094 84.6866 236.328 81.4691 236.328 77.5C236.328 73.5309 233.094 70.3133 229.104 70.3133H206.4C210.39 70.3133 213.624 67.0957 213.624 63.1266C213.624 59.1576 210.39 55.94 206.4 55.94H140.352C144.342 55.94 147.576 52.7224 147.576 48.7533C147.576 44.7842 144.342 41.5667 140.352 41.5667H81.5279C77.5382 41.5667 74.3039 44.7842 74.3039 48.7533C74.3039 52.7224 77.5382 55.94 81.5279 55.94H40.2479C36.2582 55.94 33.0239 59.1576 33.0239 63.1266C33.0239 67.0957 36.2582 70.3133 40.2479 70.3133H66.0479C70.0376 70.3133 73.2719 73.5309 73.2719 77.5C73.2719 81.4691 70.0376 84.6866 66.0479 84.6866H24.7679C20.7782 84.6866 17.5439 87.9042 17.5439 91.8733C17.5439 95.8424 20.7782 99.06 24.7679 99.06H65.0159C61.0262 99.06 57.7919 102.278 57.7919 106.247C57.7919 110.216 61.0262 113.433 65.0159 113.433ZM233.232 113.433C237.222 113.433 240.456 110.216 240.456 106.247C240.456 102.278 237.222 99.06 233.232 99.06C229.242 99.06 226.008 102.278 226.008 106.247C226.008 110.216 229.242 113.433 233.232 113.433Z" fill="white"/>
</svg>
