<svg width="18" height="19" viewBox="0 0 18 19" fill="none" xmlns="http://www.w3.org/2000/svg">
<path d="M12.4487 2.27734C12.696 2.27739 12.9397 2.3364 13.1596 2.44948C13.3796 2.56257 13.5694 2.72646 13.7133 2.92757L13.7826 3.03257L15.6679 6.17479C15.8537 6.48467 15.965 6.83346 15.993 7.19368L16 7.3749V14.7218C16.0001 15.1142 15.8519 15.4922 15.5851 15.78C15.3182 16.0678 14.9525 16.244 14.5611 16.2735L14.4444 16.2773H3.55556C3.16311 16.2775 2.78511 16.1293 2.49735 15.8624C2.20959 15.5956 2.03332 15.2298 2.00389 14.8385L2 14.7218V7.3749C2.00002 7.01314 2.08417 6.65633 2.24578 6.33268L2.33289 6.17401L4.21667 3.03257C4.34391 2.82035 4.51995 2.64154 4.73016 2.51101C4.94037 2.38047 5.17869 2.30197 5.42533 2.28201L5.55133 2.27734H12.4487ZM12.4487 3.8329H9.77778V6.94401H14.3153L12.4487 3.8329ZM8.22222 3.8329H5.55133L3.68467 6.94401H8.22222V3.8329Z" fill="#9FAAAC"/>
</svg>
