<svg width="26" height="22" viewBox="0 0 26 22" fill="none" xmlns="http://www.w3.org/2000/svg">
<path d="M13.7615 5.81756L13.6688 5.78992C13.4531 5.72559 13.33 5.49871 13.3944 5.2827L13.7615 5.81756ZM13.7615 5.81756L13.7708 5.80678M13.7615 5.81756L13.7708 5.80678M13.7708 5.80678C13.9526 5.81347 14.1223 5.69692 14.1762 5.51524C14.5768 4.16909 15.8397 3.22803 17.2462 3.22803C17.4714 3.22803 17.654 3.04537 17.654 2.82014C17.654 2.5949 17.4714 2.41226 17.2462 2.41226C15.4207 2.41226 13.8869 3.6277 13.3944 5.28266L13.7708 5.80678Z" fill="#2D5FF7" stroke="#2D5FF7" stroke-width="0.3"/>
<path d="M20.857 15.6065L19.3098 15.6065C19.0846 15.6065 18.9019 15.4238 18.9019 15.1986C18.9019 14.9734 19.0846 14.7907 19.3098 14.7907H20.8571C22.9071 14.7907 24.5753 13.1225 24.5753 11.0725C24.5753 9.02246 22.9071 7.35424 20.8571 7.35424H20.8199C20.7016 7.35424 20.5891 7.30298 20.5116 7.2135C20.4342 7.12417 20.3992 7.00558 20.4161 6.88828M20.857 15.6065L20.5646 6.9097M20.857 15.6065C23.3571 15.6065 25.391 13.5728 25.391 11.0725C25.391 8.70891 23.5737 6.7625 21.2628 6.5567M20.857 15.6065L20.8637 15.4565C23.2779 15.4528 25.241 13.4877 25.241 11.0725C25.241 8.77894 23.4709 6.89133 21.2249 6.70399L21.2551 6.70609C21.2586 6.65613 21.2611 6.60633 21.2628 6.5567M20.4161 6.88828L20.5646 6.9097M20.4161 6.88828C20.4161 6.88833 20.4161 6.88837 20.4161 6.88842L20.5646 6.9097M20.4161 6.88828C20.4381 6.73458 20.4492 6.58038 20.4492 6.4306C20.4492 4.66499 19.0123 3.22812 17.2467 3.22812C16.5595 3.22812 15.9049 3.44267 15.3523 3.849L15.3522 3.84903C15.1512 3.99671 14.8657 3.93119 14.7495 3.71009L14.7495 3.71003C13.1615 0.68628 9.014 0.280031 6.8636 2.91057M20.5646 6.9097C20.5876 6.74908 20.5992 6.58772 20.5992 6.4306C20.5992 4.58215 19.0952 3.07812 17.2467 3.07812C16.5276 3.07812 15.8418 3.30284 15.2634 3.72816C15.1363 3.82155 14.9558 3.7801 14.8823 3.64029C13.2442 0.52104 8.96567 0.102156 6.74746 2.81563M6.8636 2.91057C6.8636 2.91057 6.8636 2.91057 6.8636 2.91057L6.74746 2.81563M6.8636 2.91057C5.95771 4.01879 5.60181 5.46002 5.88708 6.86532L5.88709 6.86539C5.93835 7.1185 5.74469 7.35444 5.48735 7.35444H5.38401C3.33401 7.35444 1.66579 9.02266 1.66579 11.0727C1.66579 13.1227 3.33401 14.7909 5.38401 14.7909H6.93129C7.15651 14.7909 7.33917 14.9735 7.33917 15.1988C7.33917 15.424 7.15652 15.6067 6.93129 15.6067H5.38401C2.88388 15.6067 0.85 13.5728 0.85 11.0726C0.85 8.69764 2.68522 6.74353 5.01212 6.55375C4.83931 5.06171 5.2724 3.56836 6.23197 2.39431L6.23197 2.3943C8.64071 -0.552493 13.2284 -0.265184 15.2486 2.944M6.8636 2.91057L21.1114 6.5893M6.74746 2.81563C5.81303 3.95878 5.44587 5.44584 5.74008 6.89516L6.74746 2.81563ZM21.2628 6.5567C21.2134 6.5523 21.1637 6.54869 21.1139 6.54589L21.1114 6.5893M21.2628 6.5567C21.3366 4.30779 19.5228 2.41256 17.2466 2.41256C16.5375 2.41256 15.8548 2.595 15.2486 2.944M21.1114 6.5893C21.204 4.40834 19.4504 2.56256 17.2466 2.56256C16.565 2.56256 15.9094 2.73747 15.3269 3.07201C15.3012 3.02884 15.2751 2.98617 15.2486 2.944M21.1114 6.5893L15.12 3.02127C15.1625 2.99467 15.2053 2.96891 15.2486 2.944" fill="#2D5FF7" stroke="#2D5FF7" stroke-width="0.3"/>
<path d="M6.48379 15.0531C6.48379 18.6909 9.44315 21.6502 13.0809 21.6502C16.7187 21.6502 19.678 18.6908 19.678 15.0531C19.678 11.4153 16.7187 8.45596 13.0809 8.45596C9.4431 8.45596 6.48379 11.4153 6.48379 15.0531ZM7.29967 15.0531C7.29967 11.8655 9.89327 9.27184 13.0809 9.27184C16.2685 9.27184 18.8622 11.8654 18.8622 15.0531C18.8622 18.2407 16.2685 20.8343 13.0809 20.8343C9.89332 20.8343 7.29967 18.2407 7.29967 15.0531Z" fill="#2D5FF7" stroke="#2D5FF7" stroke-width="0.3"/>
<path d="M13.2025 17.8372C13.0982 17.8372 13.0137 17.7526 13.0137 17.6484V12.7396C13.0137 12.6353 13.0982 12.5508 13.2025 12.5508C13.3067 12.5508 13.3913 12.6353 13.3913 12.7396V17.6484C13.3913 17.7528 13.3067 17.8372 13.2025 17.8372Z" fill="#2D5FF7" stroke="#2D5FF7" stroke-width="0.5"/>
<path d="M14.7086 14.4393C14.6603 14.4393 14.6119 14.4208 14.5751 14.384L13.1982 13.0071L11.8214 14.384C11.7477 14.4577 11.6281 14.4577 11.5543 14.384C11.4806 14.3102 11.4806 14.1907 11.5543 14.117L13.0647 12.6066C13.1384 12.5328 13.258 12.5328 13.3317 12.6066L14.8421 14.117C14.9159 14.1907 14.9159 14.3102 14.8421 14.384C14.8053 14.4209 14.7569 14.4393 14.7086 14.4393H14.7086Z" fill="#2D5FF7" stroke="#2D5FF7" stroke-width="0.5"/>
</svg>
